<?xml version="1.0" standalone="no"?>
<!DOCTYPE svg PUBLIC "-//W3C//DTD SVG 20010904//EN"
 "http://www.w3.org/TR/2001/REC-SVG-20010904/DTD/svg10.dtd">
<svg version="1.0" xmlns="http://www.w3.org/2000/svg"
 width="512.000000pt" height="512.000000pt" viewBox="0 0 512.000000 512.000000"
 preserveAspectRatio="xMidYMid meet">
<metadata>
Created by potrace 1.16, written by Peter Selinger 2001-2019
</metadata>
<g transform="translate(0.000000,512.000000) scale(0.100000,-0.100000)"
fill="#000000" stroke="none">
<path d="M2315 4716 c-334 -116 -505 -194 -682 -313 -104 -69 -263 -219 -332
-312 -182 -246 -252 -545 -205 -883 29 -216 40 -254 122 -417 l76 -154 4 -126
c3 -96 -1 -155 -17 -247 -29 -169 -28 -229 7 -295 55 -106 161 -140 312 -101
41 11 76 19 77 18 9 -8 54 -363 58 -461 11 -233 4 -213 108 -328 51 -56 114
-132 140 -168 54 -74 65 -82 157 -104 75 -19 93 -28 204 -100 46 -29 111 -68
146 -85 l63 -32 40 18 c23 11 103 56 180 101 107 63 155 85 211 97 79 18 89
25 164 128 23 31 81 98 129 148 l87 92 9 137 c8 130 53 540 60 547 2 2 35 -3
73 -11 185 -39 289 4 329 137 20 69 19 130 -6 289 -15 95 -20 164 -17 235 l5
102 71 148 c101 213 144 400 144 639 2 556 -335 955 -1038 1229 -198 77 -407
146 -440 145 -16 0 -123 -33 -239 -73z m437 -80 c219 -77 319 -119 457 -192
360 -190 598 -445 691 -739 21 -66 42 -299 26 -284 -3 3 -11 43 -16 88 -28
221 -117 368 -350 579 -196 177 -319 255 -498 312 -51 17 -96 30 -102 30 -5 0
60 -36 146 -79 252 -130 456 -274 555 -394 55 -65 116 -180 149 -277 31 -93
39 -180 28 -305 -9 -100 -8 -119 13 -210 36 -157 33 -180 -34 -322 -105 -223
-124 -368 -78 -588 26 -123 24 -177 -11 -232 -38 -63 -77 -72 -288 -73 -159 0
-191 -3 -225 -19 -81 -38 -135 -120 -135 -208 -1 -44 -2 -47 -15 -29 -8 11
-15 36 -15 55 1 100 104 209 227 241 33 8 29 9 -26 5 -86 -7 -144 -36 -186
-94 -46 -62 -59 -116 -52 -206 l5 -74 -35 -21 c-20 -11 -36 -20 -37 -18 -1 2
-13 36 -26 76 -30 88 -41 74 -33 -42 l6 -78 -29 6 c-22 5 -43 0 -78 -19 -34
-18 -52 -23 -59 -16 -23 23 -137 0 -137 -27 0 -4 -4 -13 -9 -20 -6 -10 -16 -7
-41 16 -43 40 -97 54 -140 35 -29 -12 -36 -11 -54 2 -67 49 -67 49 -87 37 -10
-7 -21 -12 -24 -12 -3 0 -5 46 -6 103 -1 97 -1 100 -15 69 -8 -17 -20 -53 -26
-80 -7 -26 -13 -49 -15 -51 -1 -2 -20 8 -42 22 -39 26 -39 27 -29 64 13 48 5
130 -17 174 -47 93 -140 151 -260 163 l-60 6 45 -14 c169 -49 294 -197 254
-300 -10 -25 -24 -18 -24 12 0 43 -17 94 -49 144 -22 34 -44 53 -88 74 -58 29
-58 29 -255 29 -222 0 -231 3 -275 81 -30 51 -29 100 3 254 42 203 22 347 -76
543 -72 144 -73 150 -45 283 22 98 25 138 24 286 -1 203 13 275 86 423 50 102
93 158 186 240 124 109 402 279 542 330 26 10 45 20 42 23 -11 12 -148 -34
-250 -83 -142 -68 -219 -127 -386 -294 -202 -202 -264 -317 -292 -532 -11 -87
-14 -98 -20 -68 -12 60 10 220 43 309 61 167 146 295 292 436 189 183 412 302
848 455 91 31 173 58 182 58 10 1 100 -28 200 -63z m-872 -2991 c32 -203 40
-236 71 -295 31 -58 120 -159 177 -199 l33 -23 -17 38 c-23 55 -57 164 -52
169 3 3 26 -2 51 -11 46 -16 47 -17 47 -58 0 -44 30 -97 79 -140 28 -25 27 -7
-4 54 -14 27 -25 63 -25 80 0 30 1 31 33 25 17 -4 43 -12 56 -17 23 -8 23 -9
6 -28 -26 -28 -13 -60 49 -124 58 -59 59 -59 22 43 -28 77 -26 81 54 81 39 0
70 -3 70 -8 0 -4 -4 -22 -10 -41 -9 -33 -5 -67 22 -166 l10 -40 26 89 c21 74
23 96 15 128 l-10 38 73 0 c87 0 88 -4 49 -89 -14 -30 -24 -58 -23 -63 2 -6
27 15 56 46 52 55 64 90 40 114 -17 17 -6 24 47 29 34 4 45 2 46 -8 3 -34 -4
-66 -22 -101 -26 -52 -24 -56 12 -22 49 47 72 90 67 129 -3 27 0 35 12 35 8 1
32 7 52 14 21 7 39 11 42 9 6 -6 -27 -99 -53 -152 -13 -24 -21 -45 -18 -47 8
-8 155 137 190 188 39 57 51 102 81 311 22 151 36 168 30 37 l-5 -105 26 85
c14 46 28 86 31 89 14 14 -24 -410 -41 -460 -15 -42 -250 -345 -283 -366 -10
-6 -55 -22 -99 -36 -54 -17 -111 -45 -179 -89 -54 -36 -114 -73 -132 -82 l-34
-18 -125 83 c-93 62 -147 90 -216 113 l-92 31 -113 135 c-178 213 -169 194
-187 411 -8 101 -15 208 -14 239 l1 55 20 -65 c11 -36 26 -81 34 -100 l15 -35
-5 35 c-10 74 -18 195 -13 190 3 -3 15 -64 27 -135z m273 -117 c12 -6 27 -18
34 -27 13 -17 17 -72 6 -109 -5 -21 -10 -23 -36 -18 -49 10 -67 33 -67 87 0
30 6 53 16 63 19 19 19 19 47 4z m876 -29 c22 -64 -21 -138 -75 -127 -16 3
-20 14 -22 64 -3 70 11 94 58 94 22 0 30 -6 39 -31z m-710 -15 c28 -23 31 -32
31 -79 0 -29 -3 -60 -6 -69 -7 -19 -43 -21 -79 -4 -23 10 -25 17 -25 69 0 67
13 109 34 109 8 0 28 -12 45 -26z m539 0 c19 -13 22 -24 22 -79 0 -71 -11 -85
-68 -85 -36 0 -42 13 -42 85 0 46 4 57 26 74 32 25 33 25 62 5z m-346 -35 c30
-29 30 -32 24 -97 -4 -37 -10 -70 -14 -73 -4 -3 -32 -3 -62 0 -45 5 -57 10
-67 31 -19 37 -17 129 4 152 26 29 79 24 115 -13z m206 15 c19 -13 22 -24 21
-72 -2 -94 -8 -106 -63 -116 -63 -13 -79 -2 -88 60 -9 63 5 118 34 132 33 16
70 14 96 -4z"/>
<path d="M1400 3462 c0 -123 -3 -133 -84 -305 l-46 -99 40 32 c56 44 138 138
162 184 28 54 20 110 -31 216 l-41 84 0 -112z"/>
<path d="M3669 3473 c-47 -104 -53 -148 -26 -199 23 -44 86 -118 151 -176 l58
-51 -55 110 c-78 155 -91 205 -83 320 3 51 5 93 3 93 -2 0 -24 -44 -48 -97z"/>
<path d="M2364 3350 c114 -124 151 -182 150 -240 -1 -93 -65 -154 -161 -154
-45 0 -69 9 -170 61 -130 67 -290 124 -399 143 -130 21 -238 -16 -302 -105
-41 -56 -56 -108 -56 -190 1 -84 23 -158 73 -240 33 -55 36 -68 42 -160 8
-148 50 -213 148 -231 39 -8 323 13 396 28 72 16 141 49 211 101 77 59 107
102 142 207 16 47 39 104 50 127 l22 42 -22 60 -22 61 21 22 c12 13 31 42 43
65 l22 43 44 -67 c24 -37 44 -70 44 -74 0 -4 -7 -24 -16 -45 -9 -20 -14 -49
-11 -63 10 -48 85 -251 107 -287 30 -48 107 -104 210 -153 77 -37 99 -42 229
-57 192 -22 275 -17 328 18 58 38 83 95 83 189 0 69 3 81 50 174 28 56 55 126
61 160 14 78 5 176 -22 231 -28 58 -97 118 -156 135 -122 35 -314 -7 -553
-122 -124 -59 -153 -69 -199 -69 -64 0 -102 24 -131 80 -47 92 -19 154 145
330 43 46 52 59 30 46 -52 -32 -169 -123 -204 -160 l-34 -35 -57 52 c-32 29
-93 77 -136 107 l-79 54 79 -84z m-444 -307 c47 -13 146 -53 220 -88 74 -34
152 -68 173 -75 45 -14 51 -31 45 -137 -3 -62 -10 -92 -35 -145 -75 -160 -230
-243 -478 -254 -99 -5 -113 -3 -142 15 -44 28 -63 70 -73 160 -6 58 -17 96
-49 162 -51 104 -61 171 -37 250 43 142 154 175 376 112z m1573 -6 c59 -45 82
-98 82 -192 0 -72 -5 -90 -41 -175 -28 -64 -43 -116 -47 -157 -6 -73 -29 -119
-77 -150 -65 -45 -281 -23 -417 41 -98 47 -152 100 -204 199 -35 67 -43 92
-44 137 0 101 10 112 164 186 249 120 332 145 462 141 76 -2 90 -5 122 -30z"/>
<path d="M2495 2530 c-2 -3 -11 -37 -20 -75 -11 -51 -34 -101 -85 -185 -90
-150 -104 -183 -96 -238 9 -64 41 -130 70 -143 54 -25 158 61 184 152 9 29 10
30 11 9 1 -30 20 -60 69 -112 40 -42 89 -57 128 -39 34 15 64 84 64 149 0 61
-15 94 -101 228 -44 67 -64 111 -79 169 -11 43 -21 79 -23 80 -6 6 -118 11
-122 5z m256 -410 c21 -63 22 -74 10 -108 -19 -54 -49 -82 -85 -81 l-31 1 30
7 c46 10 56 41 53 154 -2 53 -3 97 -1 97 1 0 12 -32 24 -70z m-357 -165 c8
-20 8 -20 -8 0 -29 35 -38 89 -24 141 l13 48 6 -84 c3 -47 9 -94 13 -105z"/>
<path d="M3687 2263 c-24 -140 -185 -179 -534 -129 -218 31 -216 31 -175 5 17
-12 32 -25 32 -30 0 -5 -15 -39 -34 -76 -18 -38 -37 -81 -40 -98 -7 -27 -4
-25 27 18 41 57 87 90 165 120 53 20 73 21 267 19 210 -2 261 4 286 34 17 21
28 93 20 139 l-7 40 -7 -42z"/>
<path d="M1403 2221 c6 -70 26 -107 65 -122 17 -6 94 -8 212 -4 267 10 353
-14 453 -125 40 -44 45 -47 37 -23 -13 45 -22 65 -52 116 l-28 47 33 20 c17
11 36 20 41 20 5 0 7 2 4 5 -3 3 -84 -4 -179 -16 -194 -23 -382 -27 -449 -9
-53 14 -108 66 -116 109 -12 60 -27 47 -21 -18z"/>
<path d="M2537 1705 c-10 -42 -17 -93 -17 -115 0 -37 26 -110 40 -110 12 0 40
71 40 101 0 26 -37 189 -44 197 -2 1 -10 -32 -19 -73z"/>
<path d="M2370 1704 c-36 -83 -46 -130 -31 -148 17 -20 27 -20 35 -1 9 25 28
186 22 192 -3 3 -15 -16 -26 -43z"/>
<path d="M2714 1725 c2 -11 7 -49 11 -85 4 -36 12 -78 19 -95 l13 -30 16 32
c16 30 16 35 -5 91 -22 61 -65 129 -54 87z"/>
</g>
</svg>