<?xml version="1.0" standalone="no"?>
<!DOCTYPE svg PUBLIC "-//W3C//DTD SVG 20010904//EN"
 "http://www.w3.org/TR/2001/REC-SVG-20010904/DTD/svg10.dtd">
<svg version="1.0" xmlns="http://www.w3.org/2000/svg"
 width="512.000000pt" height="512.000000pt" viewBox="0 0 512.000000 512.000000"
 preserveAspectRatio="xMidYMid meet">

<g transform="translate(0.000000,512.000000) scale(0.100000,-0.100000)"
fill="#000000" stroke="none">
<path d="M0 2560 l0 -2560 2560 0 2560 0 0 2560 0 2560 -2560 0 -2560 0 0
-2560z m2768 2290 c325 -23 654 -80 889 -155 l142 -45 68 -78 c150 -171 164
-189 169 -229 3 -21 9 -47 14 -58 5 -11 14 -58 20 -104 11 -79 10 -86 -10
-112 -11 -16 -46 -77 -77 -136 -31 -60 -79 -134 -106 -166 -27 -32 -48 -59
-46 -61 2 -2 211 -72 464 -156 392 -129 464 -156 488 -181 16 -18 27 -40 27
-58 0 -68 41 -52 -1125 -441 l-1084 -361 -501 166 c-275 92 -506 165 -512 163
-6 -2 127 -51 296 -108 341 -116 335 -112 201 -151 -38 -11 -101 -30 -139 -43
l-70 -22 335 -112 c275 -92 345 -112 393 -112 50 0 159 33 725 221 366 122
672 224 679 227 11 4 13 -59 10 -339 -3 -341 -3 -344 -27 -389 -40 -76 -90
-128 -178 -187 -198 -131 -490 -218 -874 -259 -188 -20 -599 -14 -779 11 -386
54 -731 183 -864 324 l-30 31 21 28 c55 75 68 113 68 207 0 82 -3 97 -33 157
-21 44 -50 82 -83 111 l-49 43 10 100 c10 94 9 100 -10 115 -19 17 -19 17 12
79 67 130 196 219 481 335 73 29 188 76 257 105 242 99 640 249 717 269 41 11
42 13 31 37 -13 29 -55 54 -90 54 -46 0 -382 -122 -768 -278 -102 -41 -229
-92 -282 -113 -236 -93 -386 -180 -451 -264 -65 -82 -120 -244 -133 -389 l-7
-75 46 -51 c86 -96 85 -210 -3 -305 l-28 -30 14 -90 c7 -49 16 -180 20 -290 7
-236 -3 -304 -66 -431 -48 -99 -125 -180 -205 -220 -54 -26 -60 -27 -104 -15
-64 17 -245 109 -289 146 l-35 31 84 90 c110 116 168 198 229 325 54 115 91
233 111 353 10 68 10 81 -2 84 -28 9 -95 89 -107 129 -29 96 -4 183 72 250
l43 38 17 122 c18 138 52 256 103 356 l34 68 -23 31 c-19 27 -19 31 -4 25 37
-14 66 -19 66 -10 0 4 -112 46 -249 91 -159 53 -255 90 -267 103 -11 13 -19
36 -19 60 0 56 31 81 150 119 55 18 103 35 107 37 4 2 -1 20 -12 41 -10 21
-28 98 -39 177 -20 133 -20 146 -6 265 15 120 29 184 45 205 4 6 26 55 49 110
39 93 48 107 129 186 114 113 224 209 237 209 6 0 61 20 123 45 183 75 350
110 607 130 121 9 225 18 230 20 23 8 619 4 753 -5z"/>
<path d="M1593 4803 c9 -2 23 -2 30 0 6 3 -1 5 -18 5 -16 0 -22 -2 -12 -5z"/>
<path d="M706 4275 c-9 -14 -13 -25 -8 -25 5 0 14 11 20 25 6 14 10 25 8 25
-2 0 -11 -11 -20 -25z"/>
</g>
</svg>
